<svg width="71" height="87" viewBox="0 0 71 87" fill="none" xmlns="http://www.w3.org/2000/svg">
<g filter="url(#filter0_d_102_8)">
<path d="M23.4367 27.5463C15.5915 27.5463 11.4593 33.6396 11.4593 39.6122C11.4593 45.5848 15.5915 51.6781 23.4367 51.6781C28.1678 51.6781 31.9406 48.2996 35.4141 44.3179C38.8875 48.2996 42.5406 51.6781 47.3915 51.6781C55.2367 51.6781 59.3689 45.5848 59.3689 39.6122C59.3689 33.6396 55.2367 27.5463 47.3915 27.5463C42.5406 27.5463 38.8875 30.9248 35.4141 34.9065C31.9406 30.9248 28.1678 27.5463 23.4367 27.5463ZM23.4367 33.5793C25.9519 33.5793 28.7067 36.4147 31.4615 39.6122C28.7067 42.8097 25.9519 45.6451 23.4367 45.6451C19.005 45.6451 17.448 42.3873 17.448 39.6122C17.448 36.837 19.005 33.5793 23.4367 33.5793ZM47.3915 33.5793C51.8231 33.5793 53.3802 36.837 53.3802 39.6122C53.3802 42.3873 51.8231 45.6451 47.3915 45.6451C44.8163 45.6451 42.0615 42.8097 39.3666 39.6122C42.1214 36.4147 44.8163 33.5793 47.3915 33.5793Z" fill="black"/>
<path d="M5.44033 16.9162V0H6.95093V16.9162H5.44033Z" fill="black"/>
<path d="M16.8928 16.9162V8.06883C16.8928 7.77785 16.8381 7.50653 16.7288 7.25487C16.6195 6.99535 16.4712 6.77121 16.2838 6.58247C16.0965 6.39372 15.874 6.2443 15.6164 6.1342C15.3665 6.0241 15.0972 5.96905 14.8084 5.96905H13.8481C13.5593 5.96905 13.2861 6.0241 13.0284 6.1342C12.7786 6.2443 12.56 6.39372 12.3727 6.58247C12.1853 6.77121 12.037 6.99535 11.9277 7.25487C11.8184 7.50653 11.7638 7.77785 11.7638 8.06883V16.9162H10.3234V4.83658H10.8035L11.5881 6.06342C11.916 5.61515 12.3258 5.26126 12.8177 5.00173C13.3173 4.73434 13.8599 4.60065 14.4454 4.60065H14.8084C15.2924 4.60065 15.7491 4.69502 16.1784 4.88377C16.6078 5.06465 16.9825 5.31631 17.3026 5.63875C17.6227 5.96118 17.8725 6.33867 18.052 6.77121C18.2394 7.20375 18.3331 7.66382 18.3331 8.15141V16.9162H16.8928Z" fill="black"/>
<path d="M25.3357 1.38019C25.0937 1.38019 24.8673 1.42738 24.6565 1.52175C24.4535 1.60826 24.274 1.73016 24.1178 1.88745C23.9617 2.04473 23.8368 2.22955 23.7431 2.44188C23.6572 2.65422 23.6143 2.88229 23.6143 3.12608V4.83658H26.413V6.21678H23.6143V16.9162H22.174V6.21678H20.0076V4.83658H22.174V3.19686C22.174 2.75646 22.2559 2.34358 22.4199 1.95823C22.5838 1.56501 22.8102 1.22291 23.0991 0.931926C23.3879 0.640945 23.7236 0.412879 24.1061 0.247727C24.4887 0.0825758 24.8985 0 25.3357 0H26.6589V1.38019H25.3357Z" fill="black"/>
<path d="M28.4623 1.93463V0H30.1368V1.93463H28.4623ZM28.5794 16.9162V4.83658H30.0197V16.9162H28.5794Z" fill="black"/>
<path d="M39.9615 16.9162V8.06883C39.9615 7.77785 39.9069 7.50653 39.7976 7.25487C39.6883 6.99535 39.54 6.77121 39.3526 6.58247C39.1652 6.39372 38.9428 6.2443 38.6851 6.1342C38.4353 6.0241 38.166 5.96905 37.8771 5.96905H36.9169C36.6281 5.96905 36.3548 6.0241 36.0972 6.1342C35.8474 6.2443 35.6288 6.39372 35.4414 6.58247C35.2541 6.77121 35.1058 6.99535 34.9965 7.25487C34.8872 7.50653 34.8325 7.77785 34.8325 8.06883V16.9162H33.3922V4.83658H33.8723L34.6569 6.06342C34.9848 5.61515 35.3946 5.26126 35.8864 5.00173C36.3861 4.73434 36.9286 4.60065 37.5141 4.60065H37.8771C38.3612 4.60065 38.8178 4.69502 39.2472 4.88377C39.6766 5.06465 40.0513 5.31631 40.3714 5.63875C40.6914 5.96118 40.9413 6.33867 41.1208 6.77121C41.3082 7.20375 41.4019 7.66382 41.4019 8.15141V16.9162H39.9615Z" fill="black"/>
<path d="M44.6455 1.93463V0H46.3201V1.93463H44.6455ZM44.7626 16.9162V4.83658H46.203V16.9162H44.7626Z" fill="black"/>
<path d="M53.9433 16.9162C53.5061 16.9162 53.0924 16.8337 52.702 16.6685C52.3195 16.5034 51.9838 16.2753 51.695 15.9843C51.4139 15.6933 51.1875 15.3552 51.0158 14.9698C50.8519 14.5845 50.7699 14.1716 50.7699 13.7312V6.21678H48.6152V4.83658H50.7699V1.93463L52.2102 1.6987V4.83658H55.2548V6.21678H52.2102V13.8019C52.2102 14.0457 52.2532 14.2738 52.339 14.4861C52.4327 14.6906 52.5576 14.8715 52.7138 15.0288C52.8699 15.1861 53.0533 15.3119 53.2641 15.4063C53.4749 15.4928 53.7013 15.536 53.9433 15.536H55.2548V16.9162H53.9433Z" fill="black"/>
<path d="M65.9227 13.6014C65.9227 14.089 65.829 14.5491 65.6416 14.9816C65.4621 15.4141 65.2123 15.7916 64.8922 16.1141C64.5721 16.4365 64.1974 16.6921 63.768 16.8808C63.3387 17.0617 62.882 17.1522 62.398 17.1522H61.4377C60.9537 17.1522 60.497 17.0617 60.0677 16.8808C59.6383 16.6921 59.2636 16.4365 58.9435 16.1141C58.6234 15.7916 58.3697 15.4141 58.1823 14.9816C58.0028 14.5491 57.913 14.089 57.913 13.6014V8.15141C57.913 7.66382 58.0028 7.20375 58.1823 6.77121C58.3697 6.33867 58.6234 5.96118 58.9435 5.63875C59.2636 5.31631 59.6383 5.06465 60.0677 4.88377C60.497 4.69502 60.9537 4.60065 61.4377 4.60065H62.398C62.882 4.60065 63.3387 4.69502 63.768 4.88377C64.1974 5.06465 64.5721 5.31631 64.8922 5.63875C65.2123 5.96118 65.4621 6.33867 65.6416 6.77121C65.829 7.20375 65.9227 7.66382 65.9227 8.15141V10.9944H59.3533V13.684C59.3533 13.975 59.408 14.2502 59.5173 14.5097C59.6266 14.7614 59.7749 14.9816 59.9623 15.1703C60.1496 15.3591 60.3682 15.5085 60.618 15.6186C60.8757 15.7287 61.1489 15.7838 61.4377 15.7838H62.398C62.6868 15.7838 62.9561 15.7287 63.2059 15.6186C63.4636 15.5085 63.6861 15.3591 63.8734 15.1703C64.0608 14.9816 64.2091 14.7614 64.3184 14.5097C64.4277 14.2502 64.4823 13.975 64.4823 13.684V12.8818L65.9227 13.1177V13.6014ZM64.4823 8.06883C64.4823 7.77785 64.4277 7.50653 64.3184 7.25487C64.2091 6.99535 64.0608 6.77121 63.8734 6.58247C63.6861 6.39372 63.4636 6.2443 63.2059 6.1342C62.9561 6.0241 62.6868 5.96905 62.398 5.96905H61.4377C61.1489 5.96905 60.8757 6.0241 60.618 6.1342C60.3682 6.2443 60.1496 6.39372 59.9623 6.58247C59.7749 6.77121 59.6266 6.99535 59.5173 7.25487C59.408 7.50653 59.3533 7.77785 59.3533 8.06883V9.86191H64.4823V8.06883Z" fill="black"/>
<path d="M13.6842 74.8476C13.6842 75.4217 13.5671 75.9604 13.3329 76.4637C13.1065 76.9671 12.7981 77.4075 12.4078 77.785C12.0253 78.1624 11.5764 78.4613 11.0612 78.6815C10.5537 78.8938 10.0151 79 9.44517 79H8.23903C7.66914 79 7.12658 78.8938 6.61134 78.6815C6.1039 78.4613 5.65502 78.1624 5.26468 77.785C4.88216 77.4075 4.57379 76.9671 4.33959 76.4637C4.1132 75.9604 4 75.4217 4 74.8476V74.1752L5.51059 73.9275V74.8476C5.51059 75.2251 5.58476 75.579 5.73309 75.9093C5.88922 76.2317 6.0961 76.5188 6.35372 76.7705C6.61134 77.0142 6.90799 77.2069 7.24368 77.3485C7.58717 77.49 7.94628 77.5608 8.321 77.5608H9.37491C9.74963 77.5608 10.1048 77.49 10.4405 77.3485C10.7762 77.2069 11.0729 77.0142 11.3305 76.7705C11.5881 76.5188 11.7911 76.2317 11.9394 75.9093C12.0955 75.579 12.1736 75.2251 12.1736 74.8476V74.3404C12.1736 73.7584 12.0604 73.2747 11.834 72.8894C11.6076 72.504 11.3071 72.1777 10.9323 71.9103C10.5576 71.635 10.1322 71.403 9.65595 71.2143C9.18755 71.0255 8.70353 70.8368 8.2039 70.648C7.70428 70.4593 7.21636 70.2509 6.74015 70.0228C6.27175 69.7948 5.85019 69.5116 5.47546 69.1735C5.10074 68.8274 4.80019 68.4067 4.57379 67.9113C4.3474 67.4158 4.2342 66.8063 4.2342 66.0828V65.7643C4.2342 65.1902 4.33959 64.6515 4.55037 64.1482C4.76896 63.6448 5.06561 63.2044 5.44033 62.8269C5.81506 62.4495 6.25223 62.1545 6.75186 61.9422C7.25929 61.722 7.79796 61.6119 8.36784 61.6119H9.44517C10.0151 61.6119 10.5498 61.722 11.0494 61.9422C11.5491 62.1545 11.9862 62.4495 12.361 62.8269C12.7357 63.2044 13.0284 63.6448 13.2392 64.1482C13.4578 64.6515 13.5671 65.1902 13.5671 65.7643V66.2008L12.0565 66.4485V65.7643C12.0565 65.3868 11.9862 65.0368 11.8457 64.7144C11.7052 64.3841 11.5139 64.097 11.2719 63.8532C11.0299 63.6094 10.745 63.4168 10.4171 63.2752C10.097 63.1337 9.74963 63.0629 9.37491 63.0629H8.4381C8.06338 63.0629 7.71208 63.1337 7.3842 63.2752C7.06413 63.4168 6.77918 63.6094 6.52937 63.8532C6.28736 64.097 6.0961 64.3841 5.95558 64.7144C5.81506 65.0368 5.7448 65.3868 5.7448 65.7643V66.0828C5.7448 66.6254 5.85799 67.0816 6.08439 67.4512C6.31078 67.8208 6.61134 68.1393 6.98606 68.4067C7.36078 68.6662 7.78234 68.8943 8.25074 69.0909C8.72695 69.2797 9.21487 69.4763 9.7145 69.6807C10.2141 69.8773 10.6981 70.0975 11.1665 70.3413C11.6428 70.5773 12.0682 70.8722 12.4429 71.2261C12.8177 71.5721 13.1182 71.9968 13.3446 72.5001C13.571 73.0034 13.6842 73.6168 13.6842 74.3404V74.8476Z" fill="black"/>
<path d="M20.8273 78.7641C20.3901 78.7641 19.9764 78.6815 19.5861 78.5163C19.2035 78.3512 18.8678 78.1231 18.579 77.8321C18.298 77.5412 18.0716 77.203 17.8998 76.8176C17.7359 76.4323 17.6539 76.0194 17.6539 75.579V68.0646H15.4993V66.6844H17.6539V63.7825L19.0942 63.5465V66.6844H22.1388V68.0646H19.0942V75.6498C19.0942 75.8936 19.1372 76.1216 19.223 76.334C19.3167 76.5385 19.4416 76.7193 19.5978 76.8766C19.7539 77.0339 19.9374 77.1597 20.1481 77.2541C20.3589 77.3406 20.5853 77.3839 20.8273 77.3839H22.1388V78.7641H20.8273Z" fill="black"/>
<path d="M32.8067 75.4492C32.8067 75.9368 32.713 76.3969 32.5257 76.8294C32.3461 77.262 32.0963 77.6395 31.7762 77.9619C31.4561 78.2843 31.0814 78.5399 30.652 78.7287C30.2227 78.9096 29.766 79 29.282 79H28.3217C27.8377 79 27.381 78.9096 26.9517 78.7287C26.5223 78.5399 26.1476 78.2843 25.8275 77.9619C25.5074 77.6395 25.2537 77.262 25.0664 76.8294C24.8868 76.3969 24.797 75.9368 24.797 75.4492V69.9992C24.797 69.5116 24.8868 69.0516 25.0664 68.619C25.2537 68.1865 25.5074 67.809 25.8275 67.4866C26.1476 67.1641 26.5223 66.9125 26.9517 66.7316C27.381 66.5429 27.8377 66.4485 28.3217 66.4485H29.282C29.766 66.4485 30.2227 66.5429 30.652 66.7316C31.0814 66.9125 31.4561 67.1641 31.7762 67.4866C32.0963 67.809 32.3461 68.1865 32.5257 68.619C32.713 69.0516 32.8067 69.5116 32.8067 69.9992V75.4492ZM31.3664 69.9167C31.3664 69.6257 31.3117 69.3544 31.2024 69.1027C31.0931 68.8432 30.9448 68.619 30.7574 68.4303C30.5701 68.2416 30.3476 68.0921 30.09 67.982C29.8401 67.8719 29.5708 67.8169 29.282 67.8169H28.3217C28.0329 67.8169 27.7597 67.8719 27.502 67.982C27.2522 68.0921 27.0336 68.2416 26.8463 68.4303C26.6589 68.619 26.5106 68.8432 26.4013 69.1027C26.292 69.3544 26.2374 69.6257 26.2374 69.9167V75.5318C26.2374 75.8228 26.292 76.098 26.4013 76.3576C26.5106 76.6092 26.6589 76.8294 26.8463 77.0182C27.0336 77.2069 27.2522 77.3563 27.502 77.4664C27.7597 77.5765 28.0329 77.6316 28.3217 77.6316H29.282C29.5708 77.6316 29.8401 77.5765 30.09 77.4664C30.3476 77.3563 30.5701 77.2069 30.7574 77.0182C30.9448 76.8294 31.0931 76.6092 31.2024 76.3576C31.3117 76.098 31.3664 75.8228 31.3664 75.5318V69.9167Z" fill="black"/>
<path d="M39.2121 68.0646C38.9232 68.0646 38.65 68.1197 38.3924 68.2298C38.1426 68.3399 37.924 68.4893 37.7366 68.678C37.5493 68.8668 37.4009 69.0909 37.2916 69.3504C37.1823 69.6021 37.1277 69.8734 37.1277 70.1644V78.7641H35.6874V66.6844H36.1675L36.952 67.9113C37.2799 67.463 37.6898 67.1091 38.1816 66.8496C38.6812 66.5822 39.2238 66.4485 39.8093 66.4485H40.6524V68.0646H39.2121Z" fill="black"/>
<path d="M42.9359 63.7825V61.8478H44.6104V63.7825H42.9359ZM43.053 78.7641V66.6844H44.4933V78.7641H43.053Z" fill="black"/>
<path d="M55.8755 75.4492C55.8755 75.9368 55.7818 76.3969 55.5944 76.8294C55.4149 77.262 55.1651 77.6395 54.845 77.9619C54.5249 78.2843 54.1502 78.5399 53.7208 78.7287C53.2914 78.9096 52.8348 79 52.3507 79H51.3905C50.9065 79 50.4498 78.9096 50.0204 78.7287C49.5911 78.5399 49.2164 78.2843 48.8963 77.9619C48.5762 77.6395 48.3225 77.262 48.1351 76.8294C47.9556 76.3969 47.8658 75.9368 47.8658 75.4492V69.9992C47.8658 69.5116 47.9556 69.0516 48.1351 68.619C48.3225 68.1865 48.5762 67.809 48.8963 67.4866C49.2164 67.1641 49.5911 66.9125 50.0204 66.7316C50.4498 66.5429 50.9065 66.4485 51.3905 66.4485H52.3507C52.8348 66.4485 53.2914 66.5429 53.7208 66.7316C54.1502 66.9125 54.5249 67.1641 54.845 67.4866C55.1651 67.809 55.4149 68.1865 55.5944 68.619C55.7818 69.0516 55.8755 69.5116 55.8755 69.9992V72.8422H49.3061V75.5318C49.3061 75.8228 49.3608 76.098 49.4701 76.3576C49.5794 76.6092 49.7277 76.8294 49.9151 77.0182C50.1024 77.2069 50.321 77.3563 50.5708 77.4664C50.8284 77.5765 51.1017 77.6316 51.3905 77.6316H52.3507C52.6396 77.6316 52.9089 77.5765 53.1587 77.4664C53.4164 77.3563 53.6388 77.2069 53.8262 77.0182C54.0136 76.8294 54.1619 76.6092 54.2712 76.3576C54.3805 76.098 54.4351 75.8228 54.4351 75.5318V74.7297L55.8755 74.9656V75.4492ZM54.4351 69.9167C54.4351 69.6257 54.3805 69.3544 54.2712 69.1027C54.1619 68.8432 54.0136 68.619 53.8262 68.4303C53.6388 68.2416 53.4164 68.0921 53.1587 67.982C52.9089 67.8719 52.6396 67.8169 52.3507 67.8169H51.3905C51.1017 67.8169 50.8284 67.8719 50.5708 67.982C50.321 68.0921 50.1024 68.2416 49.9151 68.4303C49.7277 68.619 49.5794 68.8432 49.4701 69.1027C49.3608 69.3544 49.3061 69.6257 49.3061 69.9167V71.7097H54.4351V69.9167Z" fill="black"/>
<path d="M67 75.697C67 76.1846 66.9024 76.6328 66.7072 77.0418C66.5121 77.4429 66.2467 77.7889 65.911 78.0799C65.5753 78.3708 65.1849 78.5989 64.74 78.7641C64.3028 78.9214 63.8422 79 63.3582 79H62.398C61.9139 79 61.4494 78.9096 61.0045 78.7287C60.5673 78.5399 60.1809 78.2843 59.8452 77.9619C59.5173 77.6395 59.2519 77.262 59.0489 76.8294C58.8537 76.3969 58.7561 75.9368 58.7561 75.4492V74.9656L60.1965 74.7297V75.5318C60.1965 75.8228 60.255 76.098 60.3721 76.3576C60.497 76.6092 60.661 76.8294 60.8639 77.0182C61.0669 77.2069 61.3011 77.3563 61.5665 77.4664C61.832 77.5765 62.1091 77.6316 62.398 77.6316H63.3582C63.647 77.6316 63.9242 77.5883 64.1896 77.5018C64.455 77.4153 64.6892 77.2934 64.8922 77.1361C65.103 76.971 65.2669 76.7744 65.384 76.5463C65.5089 76.3183 65.5714 76.0587 65.5714 75.7677C65.5714 75.3352 65.4777 74.9813 65.2903 74.7061C65.103 74.4308 64.8532 74.2027 64.5409 74.0219C64.2364 73.8331 63.8851 73.6798 63.487 73.5618C63.0967 73.436 62.6946 73.3141 62.2809 73.1961C61.8671 73.0703 61.4612 72.9287 61.063 72.7714C60.6727 72.6141 60.3214 72.4097 60.0091 72.158C59.7046 71.8985 59.4587 71.576 59.2714 71.1907C59.084 70.8053 58.9903 70.3256 58.9903 69.7515C58.9903 69.2639 59.084 68.8196 59.2714 68.4185C59.4587 68.0096 59.7125 67.6596 60.0325 67.3686C60.3526 67.0776 60.7234 66.8535 61.145 66.6962C61.5743 66.5311 62.031 66.4485 62.5151 66.4485H63.3582C63.8422 66.4485 64.2989 66.5429 64.7283 66.7316C65.1576 66.9125 65.5323 67.1641 65.8524 67.4866C66.1725 67.809 66.4223 68.1865 66.6019 68.619C66.7892 69.0516 66.8829 69.5116 66.8829 69.9992V70.0464L65.4426 70.2824V69.9167C65.4426 69.6257 65.3879 69.3544 65.2786 69.1027C65.1693 68.8432 65.021 68.619 64.8336 68.4303C64.6463 68.2416 64.4238 68.0921 64.1662 67.982C63.9164 67.8719 63.647 67.8169 63.3582 67.8169H62.5151C62.2262 67.8169 61.953 67.8601 61.6954 67.9466C61.4455 68.0331 61.227 68.159 61.0396 68.3241C60.8522 68.4814 60.7039 68.6741 60.5946 68.9022C60.4853 69.1302 60.4307 69.3898 60.4307 69.6807C60.4307 70.0975 60.5243 70.4396 60.7117 70.707C60.8991 70.9666 61.145 71.1868 61.4494 71.3676C61.7617 71.5485 62.113 71.7019 62.5033 71.8277C62.9015 71.9457 63.3035 72.0715 63.7095 72.2052C64.1232 72.331 64.5253 72.4765 64.9156 72.6417C65.3138 72.8068 65.6651 73.0192 65.9695 73.2787C66.2818 73.5382 66.5316 73.8646 66.719 74.2578C66.9063 74.6431 67 75.1229 67 75.697Z" fill="black"/>
</g>
<defs>
<filter id="filter0_d_102_8" x="0" y="0" width="71" height="87" filterUnits="userSpaceOnUse" color-interpolation-filters="sRGB">
<feFlood flood-opacity="0" result="BackgroundImageFix"/>
<feColorMatrix in="SourceAlpha" type="matrix" values="0 0 0 0 0 0 0 0 0 0 0 0 0 0 0 0 0 0 127 0" result="hardAlpha"/>
<feOffset dy="4"/>
<feGaussianBlur stdDeviation="2"/>
<feComposite in2="hardAlpha" operator="out"/>
<feColorMatrix type="matrix" values="0 0 0 0 0 0 0 0 0 0 0 0 0 0 0 0 0 0 0.25 0"/>
<feBlend mode="normal" in2="BackgroundImageFix" result="effect1_dropShadow_102_8"/>
<feBlend mode="normal" in="SourceGraphic" in2="effect1_dropShadow_102_8" result="shape"/>
</filter>
</defs>
</svg>
